<svg width="42" height="42" viewBox="0 0 42 42" fill="none" xmlns="http://www.w3.org/2000/svg">
<circle cx="21" cy="21" r="21" fill="#E03E3E"/>
<path d="M19.1875 33.0508C19.1875 33.6641 19.4311 34.2523 19.8648 34.686C20.2985 35.1196 20.8867 35.3633 21.5 35.3633C22.1133 35.3633 22.7015 35.1196 23.1352 34.686C23.5689 34.2523 23.8125 33.6641 23.8125 33.0508C23.8125 32.4375 23.5689 31.8493 23.1352 31.4156C22.7015 30.9819 22.1133 30.7383 21.5 30.7383C20.8867 30.7383 20.2985 30.9819 19.8648 31.4156C19.4311 31.8493 19.1875 32.4375 19.1875 33.0508ZM20.3438 26.9805H22.6562C22.8152 26.9805 22.9453 26.8504 22.9453 26.6914V9.92578C22.9453 9.7668 22.8152 9.63672 22.6562 9.63672H20.3438C20.1848 9.63672 20.0547 9.7668 20.0547 9.92578V26.6914C20.0547 26.8504 20.1848 26.9805 20.3438 26.9805Z" fill="white"/>
</svg>
