<svg width="42" height="42" viewBox="0 0 42 42" fill="none" xmlns="http://www.w3.org/2000/svg">
<circle cx="21" cy="21" r="21" fill="#4785FE"/>
<g clip-path="url(#clip0_403_461)">
<path d="M18.5002 11C18.3053 11 18.1183 11.0774 17.9805 11.2153C17.8426 11.3531 17.7652 11.5401 17.7652 11.735V30.53H15.7555C15.5606 30.53 15.3736 30.6074 15.2358 30.7453C15.0979 30.8831 15.0205 31.0701 15.0205 31.265C15.0205 31.4599 15.0979 31.6469 15.2358 31.7847C15.3736 31.9226 15.5606 32 15.7555 32H21.0055C21.2004 32 21.3874 31.9226 21.5252 31.7847C21.6631 31.6469 21.7405 31.4599 21.7405 31.265C21.7405 31.0701 21.6631 30.8831 21.5252 30.7453C21.3874 30.6074 21.2004 30.53 21.0055 30.53H19.2352V20.87H28.2652C28.4601 20.87 28.6471 20.7926 28.7849 20.6547C28.9228 20.5169 29.0002 20.3299 29.0002 20.135V11.735C29.0002 11.5401 28.9228 11.3531 28.7849 11.2153C28.6471 11.0774 28.4601 11 28.2652 11H18.6052C18.5874 11.0001 18.5696 11.0008 18.5519 11.0021C18.5347 11.0008 18.5174 11.0001 18.5002 11V11Z" fill="white"/>
</g>
<defs>
<clipPath id="clip0_403_461">
<rect width="21" height="21" fill="white" transform="translate(8 11)"/>
</clipPath>
</defs>
</svg>
