<svg width="427" height="213" viewBox="0 0 427 213" fill="none" xmlns="http://www.w3.org/2000/svg">
<g clip-path="url(#clip0_368_1210)">
<path d="M313.987 101.62H314.783V79.8757C314.783 78.223 315.11 76.5865 315.744 75.0596C316.379 73.5328 317.309 72.1454 318.482 70.9768C319.655 69.8081 321.047 68.8811 322.579 68.2487C324.112 67.6162 325.754 67.2907 327.412 67.2907H373.642C376.991 67.2907 380.203 68.6166 382.572 70.9767C384.94 73.3369 386.271 76.5379 386.271 79.8756V199.166C386.271 200.819 385.944 202.455 385.31 203.982C384.675 205.509 383.745 206.896 382.572 208.065C381.399 209.234 380.007 210.161 378.475 210.793C376.943 211.426 375.3 211.751 373.642 211.751H327.412C324.063 211.751 320.851 210.425 318.482 208.065C316.114 205.705 314.783 202.504 314.783 199.166V117.098H313.987L313.987 101.62Z" fill="#E5E5E5"/>
<path d="M326.903 70.5649H332.937C332.66 71.2429 332.554 71.9785 332.629 72.7069C332.704 73.4353 332.957 74.1341 333.367 74.7418C333.777 75.3496 334.331 75.8475 334.979 76.1918C335.627 76.5362 336.351 76.7163 337.086 76.7164H363.57C364.305 76.7163 365.028 76.5362 365.677 76.1918C366.325 75.8475 366.879 75.3496 367.289 74.7418C367.699 74.1341 367.952 73.4353 368.027 72.7069C368.102 71.9785 367.996 71.2429 367.719 70.5649H373.355C375.856 70.5649 378.255 71.555 380.024 73.3176C381.792 75.0801 382.786 77.4706 382.786 79.9632V199.079C382.786 200.313 382.542 201.535 382.068 202.675C381.594 203.815 380.9 204.852 380.024 205.724C379.148 206.597 378.108 207.289 376.964 207.762C375.82 208.234 374.593 208.477 373.355 208.477H326.903C325.664 208.477 324.438 208.234 323.293 207.762C322.149 207.289 321.11 206.597 320.234 205.724C319.358 204.852 318.663 203.815 318.189 202.675C317.715 201.535 317.471 200.313 317.471 199.079V79.9632C317.471 78.729 317.715 77.5069 318.189 76.3666C318.663 75.2264 319.358 74.1903 320.234 73.3176C321.11 72.4449 322.149 71.7526 323.293 71.2803C324.438 70.808 325.664 70.5649 326.903 70.5649Z" fill="white"/>
<path d="M328.196 120.668H370.005V148.776H328.196V120.668Z" fill="white"/>
<path d="M328.052 148.919H370.149V120.524H328.052V148.919ZM369.861 148.632H328.34V120.811H369.861V148.632Z" fill="#3F3D56"/>
<path d="M366.472 142.614H331.729V122.898H366.472V142.614Z" fill="#E6E6E6"/>
<path d="M356.251 135.156C354.328 135.156 352.769 133.603 352.769 131.686C352.769 129.77 354.328 128.216 356.251 128.216C358.174 128.216 359.733 129.77 359.733 131.686C359.733 133.603 358.174 135.156 356.251 135.156Z" fill="#1B5DDC"/>
<path d="M345.332 142.38H362.414C362.435 142.38 362.457 142.378 362.478 142.375L354.399 128.429C354.349 128.342 354.278 128.27 354.191 128.22C354.105 128.17 354.006 128.143 353.906 128.143C353.806 128.143 353.708 128.17 353.621 128.22C353.535 128.27 353.463 128.342 353.414 128.429L347.992 137.788L347.732 138.235L345.332 142.38Z" fill="#3F3D56"/>
<path opacity="0.2" d="M345.332 142.38H351.164L348.301 138.235L348.095 137.937L347.992 137.787L347.732 138.235L345.332 142.38Z" fill="black"/>
<path d="M335.82 142.38H350.595L347.732 138.235L347.526 137.937L343.795 132.536C343.729 132.454 343.647 132.386 343.553 132.337C343.459 132.289 343.355 132.26 343.25 132.254C343.144 132.248 343.038 132.264 342.939 132.301C342.84 132.338 342.75 132.395 342.675 132.469C342.655 132.491 342.637 132.513 342.621 132.536L335.82 142.38Z" fill="#3F3D56"/>
<path d="M226.783 211.859H338.842C341.498 211.856 344.044 210.803 345.922 208.932C347.8 207.06 348.857 204.523 348.86 201.876V39.9334C348.857 37.2867 347.8 34.7493 345.922 32.8777C344.044 31.0062 341.498 29.9535 338.842 29.9505H226.783C224.127 29.9535 221.581 31.0062 219.703 32.8777C217.825 34.7493 216.768 37.2867 216.765 39.9334V201.876C216.768 204.523 217.825 207.06 219.703 208.932C221.581 210.803 224.127 211.856 226.783 211.859Z" fill="#E5E5E5"/>
<path d="M226.586 205.49H339.039C339.858 205.489 340.643 205.164 341.222 204.587C341.8 204.01 342.126 203.228 342.127 202.412V39.3972C342.126 38.5814 341.8 37.7992 341.222 37.2223C340.643 36.6453 339.858 36.3208 339.039 36.3199H226.586C225.767 36.3208 224.982 36.6453 224.403 37.2223C223.824 37.7992 223.499 38.5814 223.498 39.3972V202.412C223.499 203.228 223.824 204.01 224.403 204.587C224.982 205.164 225.767 205.489 226.586 205.49Z" fill="white"/>
<path d="M283.238 33.8571C282.768 33.8571 282.386 33.4768 282.386 33.0078C282.386 32.5388 282.768 32.1586 283.238 32.1586C283.709 32.1586 284.091 32.5388 284.091 33.0078C284.091 33.4768 283.709 33.8571 283.238 33.8571Z" fill="white"/>
<path d="M235.947 82.8569H324.426V142.341H235.947V82.8569Z" fill="white"/>
<path d="M235.642 142.645H324.731V82.5529H235.642V142.645ZM324.121 142.037H236.252V83.1609H324.121V142.037Z" fill="#3F3D56"/>
<path d="M316.949 129.301H243.424V87.5759H316.949V129.301Z" fill="#E6E6E6"/>
<path d="M295.319 113.519C291.25 113.519 287.95 110.231 287.95 106.175C287.95 102.12 291.25 98.8318 295.319 98.8318C299.389 98.8318 302.688 102.12 302.688 106.175C302.688 110.231 299.389 113.519 295.319 113.519Z" fill="#1B5DDC"/>
<path d="M272.211 128.805H308.361C308.407 128.805 308.452 128.802 308.496 128.794L291.399 99.282C291.294 99.0982 291.143 98.9453 290.96 98.8389C290.777 98.7325 290.569 98.6765 290.357 98.6765C290.145 98.6765 289.937 98.7325 289.754 98.8389C289.571 98.9453 289.419 99.0982 289.315 99.282L277.84 119.087L277.291 120.035L272.211 128.805Z" fill="#3F3D56"/>
<path opacity="0.2" d="M272.211 128.805H284.553L278.494 120.035L278.058 119.403L277.84 119.087L277.291 120.035L272.211 128.805Z" fill="black"/>
<path d="M252.082 128.805H283.35L277.291 120.035L276.855 119.403L268.959 107.974C268.819 107.799 268.645 107.656 268.446 107.553C268.247 107.45 268.029 107.39 267.805 107.376C267.581 107.363 267.357 107.397 267.148 107.475C266.938 107.554 266.747 107.675 266.588 107.832C266.547 107.877 266.509 107.924 266.474 107.974L252.082 128.805Z" fill="#3F3D56"/>
<path d="M115.529 209.936L121.201 207.556L125.092 179.22H176.909L181.127 207.44L186.202 209.969C186.445 210.09 186.639 210.289 186.754 210.534C186.869 210.779 186.898 211.055 186.836 211.319C186.773 211.582 186.623 211.816 186.411 211.984C186.198 212.152 185.934 212.244 185.663 212.244H115.996C115.718 212.244 115.449 212.148 115.233 211.972C115.018 211.796 114.87 211.552 114.815 211.28C114.76 211.009 114.801 210.726 114.931 210.481C115.061 210.236 115.273 210.043 115.529 209.936Z" fill="#E6E6E6"/>
<path d="M23.4466 182.99H277.986C279.322 182.987 280.602 182.457 281.545 181.515C282.488 180.572 283.018 179.296 283.018 177.965V142.197H18.415V177.965C18.415 179.296 18.9448 180.572 19.8881 181.514C20.8313 182.457 22.1111 182.987 23.4466 182.99Z" fill="#CCCCCC"/>
<path d="M18.1489 159.102H283.25V6.05783C283.248 4.45172 282.607 2.91192 281.468 1.77625C280.328 0.640576 278.783 0.00176873 277.171 -3.05176e-05H24.2283C22.6165 0.0017626 21.0713 0.640569 19.9316 1.77624C18.7919 2.91191 18.1508 4.45171 18.1489 6.05783V159.102Z" fill="#E5E5E5"/>
<path d="M33.9824 147.994H267.417C268.659 147.993 269.851 147.5 270.729 146.625C271.608 145.749 272.102 144.562 272.103 143.324V15.7781C272.102 14.5399 271.608 13.3528 270.729 12.4772C269.851 11.6016 268.659 11.1091 267.417 11.1077H33.9824C32.7398 11.1091 31.5485 11.6016 30.6699 12.4772C29.7913 13.3528 29.2971 14.5399 29.2957 15.7781V143.324C29.2971 144.562 29.7913 145.749 30.6699 146.625C31.5486 147.5 32.7399 147.993 33.9824 147.994Z" fill="white"/>
<path d="M0.593292 213H426.383C426.517 213.003 426.649 212.961 426.757 212.882C426.865 212.802 426.944 212.69 426.981 212.561C427.004 212.473 427.007 212.381 426.989 212.293C426.971 212.204 426.933 212.12 426.877 212.049C426.822 211.977 426.75 211.919 426.669 211.879C426.587 211.838 426.498 211.818 426.407 211.818H0.641907C0.500183 211.813 0.360931 211.856 0.246857 211.94C0.132782 212.024 0.0506287 212.143 0.0137024 212.28C-0.0055542 212.366 -0.00506592 212.456 0.0151062 212.542C0.0352783 212.629 0.074585 212.709 0.130219 212.778C0.185852 212.847 0.256317 212.903 0.336456 212.942C0.416595 212.98 0.504395 213 0.593292 213Z" fill="#CCCCCC"/>
<path d="M95.2462 56.2765C94.048 52.471 91.323 48.9806 87.5545 47.6942C83.7858 46.4077 77.2115 47.6102 75.4342 51.1812C72.873 56.3278 74.0236 62.6305 75.3818 68.2184C76.09 68.1811 76.8048 68.1517 77.5216 68.125L78.5356 64.7571V68.0918C84.1304 67.9195 89.9552 68.0273 95.7831 68.1389C96.3054 64.1828 96.4445 60.082 95.2462 56.2765Z" fill="#2F2E41"/>
<path d="M43.8365 201.286L48.5431 203.251L58.3904 186.097L51.4439 183.196L43.8365 201.286Z" fill="#9F616A"/>
<path d="M40.7241 205.331L55.8997 211.668L55.9801 211.477C56.6366 209.916 56.6439 208.159 56.0004 206.593C55.357 205.026 54.1155 203.778 52.549 203.124L52.5487 203.124L43.2799 199.253L40.7241 205.331Z" fill="#2F2E41"/>
<path d="M112.856 120.251C113.15 119.828 113.347 119.346 113.434 118.839C113.521 118.332 113.495 117.813 113.358 117.317C113.222 116.821 112.978 116.36 112.643 115.969C112.309 115.577 111.893 115.263 111.423 115.049L101.308 84.6307L94.5329 88.2314L106.607 116.999C106.298 117.808 106.298 118.703 106.607 119.512C106.915 120.322 107.511 120.99 108.282 121.391C109.052 121.792 109.943 121.897 110.786 121.687C111.629 121.477 112.365 120.966 112.856 120.251L112.856 120.251Z" fill="#9F616A"/>
<path d="M100.384 206.739H105.487L107.914 187.125H100.383L100.384 206.739Z" fill="#9F616A"/>
<path d="M99.082 211.668L115.536 211.668V211.46C115.536 209.768 114.861 208.144 113.66 206.948C112.459 205.751 110.83 205.078 109.132 205.078H109.131L99.0817 205.079L99.082 211.668Z" fill="#2F2E41"/>
<path d="M79.923 95.1763L78.7668 98.1721L78.998 101.168L101.199 98.4026L100.505 95.8676L97.961 92.8718L79.923 95.1763Z" fill="#9F616A"/>
<path d="M87.0781 68.217C82.6143 68.217 78.9957 64.611 78.9957 60.1628C78.9957 55.7146 82.6143 52.1086 87.0781 52.1086C91.5419 52.1086 95.1605 55.7146 95.1605 60.1628C95.1605 64.611 91.5419 68.217 87.0781 68.217Z" fill="#9F616A"/>
<path d="M95.6485 73.9751L91.0234 71.2097L81.7732 70.2879L73.5973 72.1315L73.6792 87.1106L78.7668 98.1721L100.505 95.8676L101.43 92.8536C101.43 92.8536 107.443 84.8061 100.967 80.1972L95.6485 73.9751Z" fill="#1B5DDC"/>
<path d="M94.4922 74.6664L95.6484 73.9751C95.6484 73.9751 101.892 75.1273 103.28 78.8145C104.667 82.5017 106.055 99.0939 106.055 99.0939L100.274 99.778L98.1922 86.1888L94.4922 74.6664Z" fill="#1B5DDC"/>
<path d="M78.7668 100.016V105.135C78.7668 105.135 72.7542 112.921 75.9917 118.912C75.9917 118.912 69.0541 131.817 68.5916 136.426L62.1164 157.628C62.1164 157.628 45.9285 173.759 47.3161 185.281L46.391 188.968L57.0288 193.577L59.3413 190.351L77.3793 159.471L92.6421 131.357L95.4172 164.541C95.4172 164.541 93.5671 190.351 98.6548 193.117L99.1173 197.265H109.913V193.322C109.913 193.322 113.918 179.29 111.605 168.689L112.53 123.982C112.53 123.982 108.367 105.086 103.28 101.859L101.43 97.2503L78.7668 100.016Z" fill="#2F2E41"/>
<path d="M92.6318 49.6748C91.0788 48.7314 89.3 48.221 87.4813 48.1971C85.6626 48.1732 83.8709 48.6367 82.2935 49.539C80.7161 50.4413 79.4109 51.7494 78.5145 53.3264C77.618 54.9034 77.1632 56.6915 77.1975 58.5037C81.7154 58.7107 86.4613 58.7646 91.2736 58.7739L92.4109 56.0002L93.0814 58.776C94.5478 58.7758 96.0169 58.7739 97.4888 58.7702C97.5489 56.9632 97.1319 55.1721 96.2795 53.576C95.4272 51.9799 94.1694 50.6346 92.6318 49.6748Z" fill="#2F2E41"/>
<path d="M105.745 50.6567L214.556 78.2311L195.888 151.384L87.0772 123.809L105.745 50.6567Z" fill="white"/>
<path d="M86.6066 124.088L196.168 151.853L215.027 77.9523L105.466 50.1877L86.6066 124.088ZM195.608 150.915L87.5478 123.531L106.025 51.1257L214.086 78.5099L195.608 150.915Z" fill="#3F3D56"/>
<path d="M190.785 133.018L100.365 110.104L113.46 58.7903L203.88 81.7042L190.785 133.018Z" fill="#E6E6E6"/>
<path d="M171.443 107.155C166.279 107.155 162.092 102.983 162.092 97.8367C162.092 92.6904 166.279 88.5184 171.443 88.5184C176.608 88.5184 180.794 92.6904 180.794 97.8367C180.794 102.983 176.608 107.155 171.443 107.155Z" fill="#1B5DDC"/>
<path d="M135.922 118.464L180.38 129.731C180.436 129.746 180.492 129.755 180.55 129.76L168.785 88.1377C168.714 87.8791 168.576 87.6439 168.384 87.456C168.193 87.2681 167.954 87.1343 167.694 87.0683C167.433 87.0023 167.16 87.0063 166.901 87.0801C166.643 87.1539 166.408 87.2947 166.222 87.4882L145.895 108.268L144.922 109.262L135.922 118.464Z" fill="#3F3D56"/>
<path opacity="0.2" d="M135.923 118.464L151.101 122.311L146.403 109.637L146.064 108.725L145.895 108.268L144.922 109.262L135.923 118.464Z" fill="black"/>
<path d="M111.169 112.192L149.621 121.936L144.922 109.262L144.584 108.349L138.461 91.8332C138.344 91.5749 138.174 91.3441 137.962 91.1556C137.75 90.9672 137.5 90.8253 137.229 90.7392C136.958 90.6531 136.673 90.6248 136.39 90.656C136.107 90.6872 135.835 90.7773 135.589 90.9204C135.525 90.9625 135.463 91.0087 135.405 91.0587L111.169 112.192Z" fill="#3F3D56"/>
<path d="M86.4551 110.599C86.2686 110.641 86.0857 110.697 85.9081 110.768L71.7982 101.089L72.1211 96.9549L65.9235 95.6538L64.6381 102.918C64.5343 103.504 64.6242 104.109 64.8945 104.64C65.1648 105.172 65.6008 105.602 66.1371 105.865L83.6152 114.455C83.6815 115.186 83.9694 115.879 84.4408 116.443C84.9121 117.006 85.5445 117.414 86.2538 117.61C86.9631 117.807 87.7157 117.784 88.4115 117.544C89.1073 117.304 89.7134 116.859 90.1491 116.267C90.5847 115.676 90.8293 114.966 90.8504 114.233C90.8714 113.5 90.6679 112.777 90.2669 112.162C89.8659 111.546 89.2864 111.067 88.6055 110.788C87.9246 110.509 87.1746 110.443 86.4551 110.599Z" fill="#9F616A"/>
<path d="M76.9167 72.8228L73.5972 72.1315C73.5972 72.1315 66.279 69.5966 65.8165 78.8145L64.8915 100.477L71.7617 101.398L74.6042 82.5016L76.9167 72.8228Z" fill="#1B5DDC"/>
</g>
<defs>
<clipPath id="clip0_368_1210">
<rect width="427" height="213" fill="white" transform="matrix(-1 0 0 1 427 0)"/>
</clipPath>
</defs>
</svg>
