<svg width="212" height="160" viewBox="0 0 212 160" fill="none" xmlns="http://www.w3.org/2000/svg">
<path d="M202.845 148.543H43.2782C40.851 148.54 38.5239 147.568 36.8076 145.839C35.0913 144.11 34.1259 141.766 34.1232 139.321V53.5323C34.1259 51.0874 35.0913 48.7435 36.8076 47.0147C38.5239 45.2859 40.851 44.3134 43.2782 44.3107H202.845C205.272 44.3134 207.599 45.2859 209.316 47.0147C211.032 48.7435 211.997 51.0874 212 53.5323V139.321C211.997 141.766 211.032 144.11 209.316 145.839C207.599 147.568 205.272 148.54 202.845 148.543Z" fill="white"/>
<path d="M202.845 148.543H43.2782C40.851 148.54 38.5239 147.568 36.8076 145.839C35.0913 144.11 34.1259 141.766 34.1232 139.321V53.5323C34.1259 51.0874 35.0913 48.7435 36.8076 47.0147C38.5239 45.2859 40.851 44.3134 43.2782 44.3107H202.845C205.272 44.3134 207.599 45.2859 209.316 47.0147C211.032 48.7435 211.997 51.0874 212 53.5323V139.321C211.997 141.766 211.032 144.11 209.316 145.839C207.599 147.568 205.272 148.54 202.845 148.543ZM43.2782 44.8696C40.9981 44.8722 38.8121 45.7857 37.1998 47.4097C35.5875 49.0337 34.6806 51.2356 34.678 53.5323V139.321C34.6806 141.618 35.5875 143.82 37.1998 145.444C38.8121 147.068 40.9981 147.981 43.2782 147.984H202.845C205.125 147.981 207.311 147.068 208.923 145.444C210.536 143.82 211.443 141.618 211.445 139.321V53.5323C211.443 51.2356 210.536 49.0337 208.923 47.4097C207.311 45.7857 205.125 44.8722 202.845 44.8696H43.2782Z" fill="#F2F2F2"/>
<path d="M202.845 141.836H43.2782C42.6162 141.835 41.9816 141.57 41.5135 141.099C41.0454 140.627 40.7821 139.988 40.7814 139.321V53.5323C40.7821 52.8655 41.0454 52.2263 41.5135 51.7548C41.9816 51.2833 42.6162 51.0181 43.2782 51.0173H202.845C203.507 51.0181 204.142 51.2833 204.61 51.7548C205.078 52.2263 205.341 52.8655 205.342 53.5323V139.321C205.341 139.988 205.078 140.627 204.61 141.099C204.142 141.57 203.507 141.835 202.845 141.836ZM43.2782 51.5762C42.7633 51.5768 42.2697 51.7831 41.9056 52.1498C41.5416 52.5165 41.3368 53.0137 41.3362 53.5323V139.321C41.3368 139.84 41.5416 140.337 41.9056 140.704C42.2697 141.07 42.7633 141.277 43.2782 141.277H202.845C203.36 141.277 203.854 141.07 204.218 140.704C204.582 140.337 204.786 139.84 204.787 139.321V53.5323C204.786 53.0137 204.582 52.5165 204.218 52.1498C203.854 51.7831 203.36 51.5768 202.845 51.5762H43.2782Z" fill="#F2F2F2"/>
<path d="M162.233 142.245L7.99369 101.061C5.64821 100.432 3.64625 98.8916 2.42702 96.7776C1.20778 94.6635 0.870845 92.1487 1.49013 89.7847L23.3132 6.85981C23.9378 4.49726 25.4672 2.48073 27.566 1.25263C29.6648 0.0245223 32.1615 -0.314863 34.5084 0.308927L188.748 41.4925C191.094 42.1216 193.096 43.6622 194.315 45.7763C195.534 47.8903 195.871 50.4052 195.252 52.7692L173.429 135.694C172.804 138.057 171.275 140.073 169.176 141.301C167.077 142.529 164.58 142.869 162.233 142.245Z" fill="#F2F2F2"/>
<path d="M162.233 142.245L7.99369 101.061C5.64821 100.432 3.64625 98.8916 2.42702 96.7776C1.20778 94.6635 0.870845 92.1487 1.49013 89.7847L23.3132 6.85981C23.9378 4.49726 25.4672 2.48073 27.566 1.25263C29.6648 0.0245223 32.1615 -0.314863 34.5084 0.308927L188.748 41.4925C191.094 42.1216 193.096 43.6622 194.315 45.7763C195.534 47.8903 195.871 50.4052 195.252 52.7692L173.429 135.694C172.804 138.057 171.275 140.073 169.176 141.301C167.077 142.529 164.58 142.869 162.233 142.245ZM34.3662 0.849154C32.1615 0.263181 29.8161 0.582002 27.8446 1.73567C25.873 2.88935 24.4362 4.78365 23.8495 7.00301L2.02646 89.9279C1.44472 92.1486 1.76124 94.5111 2.90658 96.497C4.05191 98.4829 5.93253 99.9301 8.13586 100.521L162.376 141.705C164.58 142.291 166.926 141.972 168.897 140.818C170.869 139.665 172.306 137.77 172.892 135.551L194.715 52.6259C195.297 50.4052 194.981 48.0428 193.835 46.0569C192.69 44.071 190.809 42.6237 188.606 42.0327L34.3662 0.849154Z" fill="#E6E6E6"/>
<path d="M163.939 135.762L9.69969 94.5786C9.06001 94.407 8.51403 93.9869 8.18151 93.4103C7.849 92.8337 7.7571 92.1479 7.92599 91.5032L29.749 8.57825C29.9194 7.93392 30.3365 7.38396 30.9089 7.04903C31.4813 6.71409 32.1622 6.62153 32.8023 6.79164L187.042 47.9752C187.682 48.1468 188.228 48.567 188.56 49.1435C188.893 49.7201 188.985 50.406 188.816 51.0507L166.993 133.976C166.822 134.62 166.405 135.17 165.833 135.505C165.26 135.84 164.58 135.932 163.939 135.762ZM32.6601 7.33187C32.1623 7.19955 31.6327 7.27154 31.1875 7.53204C30.7423 7.79255 30.4179 8.2203 30.2854 8.72145L8.46231 91.6464C8.33095 92.1478 8.40242 92.6813 8.66104 93.1297C8.91967 93.5781 9.34433 93.9049 9.84186 94.0384L164.082 135.222C164.579 135.354 165.109 135.282 165.554 135.022C165.999 134.761 166.324 134.334 166.456 133.832L188.279 50.9075C188.411 50.406 188.339 49.8726 188.081 49.4241C187.822 48.9757 187.397 48.6489 186.9 48.5155L32.6601 7.33187Z" fill="white"/>
<path d="M168.722 160H9.155C6.72778 159.997 4.40077 159.025 2.68446 157.296C0.968164 155.567 0.00274178 153.223 0 150.778V64.9894C0.00274178 62.5446 0.968164 60.2006 2.68446 58.4718C4.40077 56.743 6.72778 55.7706 9.155 55.7678H168.722C171.149 55.7706 173.476 56.743 175.192 58.4718C176.909 60.2006 177.874 62.5446 177.877 64.9894V150.778C177.874 153.223 176.909 155.567 175.192 157.296C173.476 159.025 171.149 159.997 168.722 160Z" fill="white"/>
<path d="M125.369 152.734H22.3256C22.1966 152.735 22.0677 152.732 21.9406 152.724L70.6755 125.078C71.6034 124.541 73.6854 124.352 75.3256 124.656C75.7754 124.726 76.2109 124.868 76.6153 125.078L109.323 143.631L110.889 144.519L125.369 152.734Z" fill="#E6E6E6"/>
<path d="M157.878 152.734H68.754L86.0246 144.519L87.2674 143.927L109.772 133.22C111.248 132.519 114.797 132.475 116.532 133.088C116.649 133.13 116.757 133.174 116.856 133.22L157.878 152.734Z" fill="#E6E6E6"/>
<path d="M9.15496 56.3267C6.87485 56.3293 4.68887 57.2428 3.07659 58.8669C1.46431 60.4909 0.557395 62.6927 0.55481 64.9894V150.778C0.557395 153.075 1.46431 155.277 3.07659 156.901C4.68887 158.525 6.87485 159.439 9.15496 159.441H168.722C171.002 159.439 173.188 158.525 174.8 156.901C176.412 155.277 177.319 153.075 177.322 150.778V64.9894C177.319 62.6927 176.412 60.4909 174.8 58.8669C173.188 57.2428 171.002 56.3293 168.722 56.3267H9.15496Z" fill="#3F3D56"/>
<path d="M168.722 153.293H9.15502C8.49306 153.293 7.85842 153.027 7.39034 152.556C6.92226 152.084 6.65896 151.445 6.6582 150.778V64.9895C6.65896 64.3227 6.92226 63.6834 7.39034 63.212C7.85842 62.7405 8.49306 62.4753 9.15502 62.4745H168.722C169.384 62.4753 170.018 62.7405 170.487 63.212C170.955 63.6834 171.218 64.3227 171.219 64.9895V150.778C171.218 151.445 170.955 152.084 170.487 152.556C170.018 153.027 169.384 153.293 168.722 153.293ZM9.15502 63.0334C8.64016 63.034 8.14654 63.2402 7.78248 63.6069C7.41841 63.9737 7.21363 64.4709 7.21305 64.9895V150.778C7.21363 151.297 7.41841 151.794 7.78248 152.161C8.14654 152.528 8.64016 152.734 9.15502 152.735H168.722C169.237 152.734 169.73 152.528 170.094 152.161C170.458 151.794 170.663 151.297 170.664 150.778V64.9895C170.663 64.4709 170.458 63.9737 170.094 63.6069C169.73 63.2402 169.237 63.034 168.722 63.0334H9.15502Z" fill="#CCCCCC"/>
<path d="M133.168 78.1774C142.653 78.1774 150.342 70.4326 150.342 60.879C150.342 51.3254 142.653 43.5806 133.168 43.5806C123.684 43.5806 115.995 51.3254 115.995 60.879C115.995 70.4326 123.684 78.1774 133.168 78.1774Z" fill="#FF6584"/>
<path d="M140.348 123.859C152.361 123.859 162.099 111.581 162.099 96.4354C162.099 81.2897 152.361 69.0117 140.348 69.0117C128.335 69.0117 118.597 81.2897 118.597 96.4354C118.597 111.581 128.335 123.859 140.348 123.859Z" fill="#F2F2F2"/>
<path d="M140.408 90.9209H140.467L141.543 153.037H139.272L140.408 90.9209Z" fill="#CCCCCC"/>
<path d="M144.118 132.044C144.184 132.171 144.198 132.319 144.155 132.456C144.113 132.594 144.018 132.708 143.892 132.775L140.773 134.43L140.271 133.471L143.391 131.817C143.517 131.75 143.665 131.736 143.801 131.779C143.937 131.821 144.051 131.916 144.118 132.044Z" fill="#CCCCCC"/>
<path d="M77.8145 123.859C89.8272 123.859 99.5654 111.581 99.5654 96.4354C99.5654 81.2897 89.8272 69.0117 77.8145 69.0117C65.8018 69.0117 56.0636 81.2897 56.0636 96.4354C56.0636 111.581 65.8018 123.859 77.8145 123.859Z" fill="#F2F2F2"/>
<path d="M81.5843 133.071V133.071C81.5178 132.944 81.4039 132.848 81.2677 132.806C81.1314 132.763 80.984 132.777 80.8578 132.844L78.6799 133.999L77.934 90.9209H77.8742L76.739 153.037H79.0096L78.701 135.212L81.3589 133.802C81.4851 133.735 81.5797 133.621 81.6219 133.484C81.6642 133.346 81.6506 133.198 81.5843 133.071Z" fill="#CCCCCC"/>
<path d="M109.006 33.236C124.227 33.236 136.599 62.1255 136.599 81.3167C136.599 100.508 124.259 116.066 109.038 116.066C93.8167 116.066 81.4773 100.508 81.4773 81.3167C81.4773 62.1255 93.7841 33.236 109.006 33.236Z" fill="#2D5BFF"/>
<path d="M113.815 127.458C113.773 127.378 113.716 127.308 113.647 127.25C113.578 127.192 113.499 127.149 113.414 127.122C113.328 127.096 113.238 127.086 113.149 127.094C113.06 127.103 112.973 127.128 112.894 127.17L110.135 128.634L109.19 74.0497H109.114L107.675 152.758H110.552L110.161 130.171L113.529 128.385C113.608 128.343 113.679 128.286 113.736 128.217C113.793 128.147 113.836 128.067 113.863 127.981C113.889 127.895 113.898 127.805 113.89 127.715C113.882 127.625 113.856 127.538 113.815 127.458Z" fill="#3F3D56"/>
<path d="M169.277 159.441H9.70981C7.28259 159.438 4.95557 158.466 3.23927 156.737C1.52297 155.008 0.557551 152.664 0.55481 150.219V64.4305C0.557551 61.9857 1.52297 59.6417 3.23927 57.9129C4.95557 56.1841 7.28259 55.2117 9.70981 55.2089H169.277C171.704 55.2117 174.031 56.1841 175.747 57.9129C177.463 59.6417 178.429 61.9857 178.432 64.4305V150.219C178.429 152.664 177.463 155.008 175.747 156.737C174.031 158.466 171.704 159.438 169.277 159.441Z" fill="white"/>
<path d="M125.924 152.176H22.8804C22.7514 152.176 22.6225 152.173 22.4954 152.166L71.2303 124.519C72.1583 123.982 74.2402 123.793 75.8805 124.097C76.3302 124.167 76.7657 124.309 77.1701 124.519L109.877 143.072L111.444 143.96L125.924 152.176Z" fill="#E6E6E6"/>
<path d="M158.433 152.176H69.3088L86.5794 143.96L87.8222 143.368L110.327 132.661C111.803 131.96 115.352 131.916 117.087 132.529C117.203 132.571 117.311 132.615 117.411 132.661L158.433 152.176Z" fill="#E6E6E6"/>
<path d="M169.277 159.441H9.70981C7.28259 159.438 4.95557 158.466 3.23927 156.737C1.52297 155.008 0.557551 152.664 0.55481 150.219V64.4305C0.557551 61.9857 1.52297 59.6417 3.23927 57.9129C4.95557 56.1841 7.28259 55.2117 9.70981 55.2089H169.277C171.704 55.2117 174.031 56.1841 175.747 57.9129C177.463 59.6417 178.429 61.9857 178.432 64.4305V150.219C178.429 152.664 177.463 155.008 175.747 156.737C174.031 158.466 171.704 159.438 169.277 159.441ZM9.70981 55.7678C7.4297 55.7704 5.24372 56.6839 3.63144 58.3079C2.01916 59.932 1.11224 62.1338 1.10966 64.4305V150.219C1.11224 152.516 2.01916 154.718 3.63144 156.342C5.24372 157.966 7.4297 158.88 9.70981 158.882H169.277C171.557 158.88 173.743 157.966 175.355 156.342C176.967 154.718 177.874 152.516 177.877 150.219V64.4305C177.874 62.1338 176.967 59.932 175.355 58.3079C173.743 56.6839 171.557 55.7704 169.277 55.7678H9.70981Z" fill="#3F3D56"/>
<path d="M169.277 152.734H9.70983C9.04787 152.734 8.41323 152.469 7.94515 151.997C7.47707 151.526 7.21377 150.886 7.21301 150.22V64.4306C7.21377 63.7638 7.47707 63.1245 7.94515 62.6531C8.41323 62.1816 9.04787 61.9164 9.70983 61.9156H169.277C169.939 61.9164 170.573 62.1816 171.041 62.6531C171.509 63.1245 171.773 63.7638 171.773 64.4306V150.22C171.773 150.886 171.509 151.526 171.041 151.997C170.573 152.469 169.939 152.734 169.277 152.734ZM9.70983 62.4745C9.19497 62.4751 8.70135 62.6813 8.33729 63.048C7.97322 63.4148 7.76844 63.912 7.76786 64.4306V150.22C7.76844 150.738 7.97322 151.235 8.33729 151.602C8.70135 151.969 9.19497 152.175 9.70983 152.176H169.277C169.792 152.175 170.285 151.969 170.649 151.602C171.013 151.235 171.218 150.738 171.219 150.22V64.4306C171.218 63.912 171.013 63.4148 170.649 63.048C170.285 62.6813 169.792 62.4751 169.277 62.4745H9.70983Z" fill="#CCCCCC"/>
<path d="M133.723 77.6185C143.208 77.6185 150.897 69.8738 150.897 60.3202C150.897 50.7665 143.208 43.0218 133.723 43.0218C124.238 43.0218 116.55 50.7665 116.55 60.3202C116.55 69.8738 124.238 77.6185 133.723 77.6185Z" fill="#FF6584"/>
<path d="M140.903 123.3C152.915 123.3 162.654 111.022 162.654 95.8765C162.654 80.7308 152.915 68.4528 140.903 68.4528C128.89 68.4528 119.152 80.7308 119.152 95.8765C119.152 111.022 128.89 123.3 140.903 123.3Z" fill="#F2F2F2"/>
<path d="M140.963 90.3621H141.022L142.098 152.478H139.827L140.963 90.3621Z" fill="#CCCCCC"/>
<path d="M144.672 131.485C144.739 131.612 144.752 131.76 144.71 131.898C144.668 132.035 144.573 132.15 144.447 132.216L141.327 133.871L140.826 132.912L143.946 131.258C144.072 131.191 144.22 131.177 144.356 131.22C144.492 131.262 144.606 131.358 144.672 131.485Z" fill="#CCCCCC"/>
<path d="M78.3695 123.3C90.3822 123.3 100.12 111.022 100.12 95.8765C100.12 80.7308 90.3822 68.4528 78.3695 68.4528C66.3568 68.4528 56.6185 80.7308 56.6185 95.8765C56.6185 111.022 66.3568 123.3 78.3695 123.3Z" fill="#F2F2F2"/>
<path d="M82.1392 132.512V132.512C82.0727 132.385 81.9588 132.289 81.8226 132.247C81.6864 132.204 81.5389 132.218 81.4127 132.285L79.2348 133.44L78.4889 90.3619H78.4292L77.2939 152.478H79.5646L79.2559 134.653L81.9138 133.243C82.04 133.176 82.1346 133.062 82.1769 132.925C82.2191 132.787 82.2056 132.639 82.1392 132.512Z" fill="#CCCCCC"/>
<path d="M109.56 32.6771C124.782 32.6771 137.154 61.5666 137.154 80.7578C137.154 99.9491 124.814 115.507 109.593 115.507C94.3715 115.507 82.0321 99.9491 82.0321 80.7578C82.0321 61.5666 94.3389 32.6771 109.56 32.6771Z" fill="#2D5BFF"/>
<path d="M114.369 126.899C114.328 126.819 114.271 126.749 114.202 126.691C114.133 126.633 114.054 126.59 113.968 126.563C113.883 126.537 113.793 126.527 113.704 126.535C113.615 126.544 113.528 126.57 113.449 126.612L110.689 128.075L109.744 73.4908H109.669L108.23 152.199H111.107L110.716 129.612L114.084 127.826C114.163 127.784 114.233 127.727 114.291 127.658C114.348 127.588 114.391 127.508 114.417 127.422C114.444 127.336 114.453 127.246 114.445 127.156C114.437 127.066 114.411 126.979 114.369 126.899Z" fill="#3F3D56"/>
</svg>
