<svg width="435" height="290" viewBox="0 0 435 290" fill="none" xmlns="http://www.w3.org/2000/svg">
<path d="M165.552 241.803L145.969 196.232C143.548 190.597 141.257 184.761 139.098 178.723C137.008 172.51 135.34 167.277 134.093 163.023C132.846 158.77 132.046 156.066 131.695 154.911L130.96 155.227L144.421 250.884L112.632 264.544L52.3932 189.207L51.6582 189.523C52.2545 190.573 53.6662 193.014 55.8934 196.846C58.1905 200.503 60.8738 205.227 63.9432 211.019C66.9601 216.688 69.6793 222.341 72.1008 227.976L91.6838 273.546L54.3822 289.576L0.0552068 163.155L57.3858 138.518L107.845 203.255L108.58 202.939L96.1574 121.857L151.467 98.0886L205.794 224.51L165.552 241.803ZM187.296 232.459L132.97 106.037L173.579 88.5864L227.906 215.008L187.296 232.459ZM302.265 183.053L222.787 144.501L249.161 205.874L211.859 221.903L157.532 95.4821L192.996 80.2422L272.869 119.714L246.1 57.4217L283.402 41.3921L337.729 167.813L302.265 183.053ZM352.243 50.1217L392.672 144.203L352.063 161.654L311.634 67.5726L270.106 85.4184L256.208 53.0781L379.689 0.0145482L393.587 32.3549L352.243 50.1217Z" fill="white" fill-opacity="0.1"/>
</svg>
