<svg width="42" height="42" viewBox="0 0 42 42" fill="none" xmlns="http://www.w3.org/2000/svg">
<circle cx="21" cy="21" r="21" fill="#4785FE"/>
<path d="M17.9375 31.875C18.8004 31.875 19.5 31.1754 19.5 30.3125C19.5 29.4496 18.8004 28.75 17.9375 28.75C17.0746 28.75 16.375 29.4496 16.375 30.3125C16.375 31.1754 17.0746 31.875 17.9375 31.875Z" fill="white"/>
<path d="M25.229 31.875C26.0919 31.875 26.7915 31.1754 26.7915 30.3125C26.7915 29.4496 26.0919 28.75 25.229 28.75C24.3661 28.75 23.6665 29.4496 23.6665 30.3125C23.6665 31.1754 24.3661 31.875 25.229 31.875Z" fill="white"/>
<path d="M28.8752 17.2917H14.6397L13.4377 14.4063C13.2799 14.0262 13.0128 13.7015 12.6703 13.4734C12.3277 13.2453 11.9252 13.1241 11.5137 13.125H9.0835V15.2083H11.5147L16.4554 27.0677C16.6168 27.4552 16.997 27.7083 17.4168 27.7083H25.7502C26.1845 27.7083 26.5731 27.4385 26.7262 27.0333L29.8512 18.7C29.9097 18.5423 29.9293 18.3728 29.9083 18.2059C29.8873 18.039 29.8263 17.8796 29.7304 17.7413C29.6346 17.6031 29.5068 17.49 29.3579 17.4117C29.209 17.3334 29.0434 17.2922 28.8752 17.2917ZM24.7085 23.5417H22.6252V25.625H20.5418V23.5417H18.4585V21.4583H20.5418V19.375H22.6252V21.4583H24.7085V23.5417Z" fill="white"/>
</svg>
