<svg width="42" height="42" viewBox="0 0 42 42" fill="none" xmlns="http://www.w3.org/2000/svg">
<circle cx="21" cy="21" r="21" fill="#707070"/>
<path d="M18.5 30C19.3284 30 20 29.3284 20 28.5C20 27.6716 19.3284 27 18.5 27C17.6716 27 17 27.6716 17 28.5C17 29.3284 17.6716 30 18.5 30Z" fill="white"/>
<path d="M25.5 30C26.3284 30 27 29.3284 27 28.5C27 27.6716 26.3284 27 25.5 27C24.6716 27 24 27.6716 24 28.5C24 29.3284 24.6716 30 25.5 30Z" fill="white"/>
<path d="M29 16H15.334L14.18 13.23C14.0285 12.8651 13.7721 12.5535 13.4433 12.3345C13.1145 12.1155 12.7281 11.9991 12.333 12H10V14H12.334L17.077 25.385C17.232 25.757 17.597 26 18 26H26C26.417 26 26.79 25.741 26.937 25.352L29.937 17.352C29.9932 17.2006 30.012 17.0379 29.9918 16.8776C29.9716 16.7174 29.913 16.5644 29.8211 16.4317C29.7291 16.2989 29.6064 16.1904 29.4634 16.1152C29.3205 16.0401 29.1615 16.0005 29 16ZM22 24L19 21H21V18H23V21H25L22 24Z" fill="white"/>
</svg>
