<svg width="394" height="258" viewBox="0 0 394 258" fill="none" xmlns="http://www.w3.org/2000/svg">
<g filter="url(#filter0_d_639_968)">
<path d="M356.072 249.261L345.048 216.027C345.048 216.027 357.174 228.14 357.174 238.079L354.998 215.095C354.998 215.095 361.216 223.481 360.594 236.215C359.973 248.95 356.072 249.261 356.072 249.261Z" fill="#E6E6E6"/>
<path d="M119.322 218.999L108.562 186.564C108.562 186.564 120.397 198.387 120.397 208.087L118.273 185.655C118.273 185.655 124.342 193.84 123.735 206.268C123.128 218.696 119.322 218.999 119.322 218.999Z" fill="#E6E6E6"/>
<path d="M287.258 233.967C287.277 255.303 244.913 248.74 193.05 248.785C141.188 248.83 99.4647 255.465 99.4463 234.129C99.4279 212.792 141.776 208.115 193.639 208.071C245.502 208.026 287.24 212.63 287.258 233.967Z" fill="#E6E6E6"/>
<path d="M390 248.772H4V249.749H390V248.772Z" fill="#3F3D56"/>
<path d="M250.911 205.152H244.131L240.904 179.027H250.911V205.152Z" fill="#A0616A"/>
<path d="M238.534 203.217H252.364V211.442H231.054V210.689C231.054 208.707 231.842 206.807 233.245 205.406C234.648 204.004 236.55 203.217 238.534 203.217Z" fill="#2F2E41"/>
<path d="M300.749 243.711H293.968L290.742 217.586H300.749V243.711Z" fill="#A0616A"/>
<path d="M288.373 241.775H302.202V250H280.893V249.247C280.893 247.266 281.681 245.365 283.083 243.964C284.486 242.563 286.389 241.775 288.373 241.775Z" fill="#2F2E41"/>
<path d="M332.024 166.099C332.493 165.531 332.832 164.867 333.016 164.155C333.2 163.442 333.226 162.698 333.091 161.974C332.956 161.25 332.664 160.565 332.235 159.966C331.806 159.368 331.251 158.87 330.609 158.509L314.862 94.427L304.792 98.7545L323.523 160.716C322.987 161.834 322.88 163.109 323.223 164.3C323.565 165.491 324.333 166.516 325.38 167.179C326.428 167.843 327.683 168.099 328.908 167.9C330.132 167.701 331.241 167.06 332.024 166.099Z" fill="#A0616A"/>
<path d="M319.742 36.5883C319.18 36.0014 318.496 35.5448 317.738 35.2505C316.98 34.9563 316.167 34.8315 315.356 34.8852C314.545 34.9388 313.755 35.1695 313.043 35.5609C312.33 35.9524 311.712 36.4951 311.233 37.1508L286.858 39.9461L290.566 49.3375L312.733 45.1933C313.89 45.9253 315.274 46.2081 316.625 45.9883C317.976 45.7684 319.2 45.0612 320.064 44.0005C320.928 42.9398 321.372 41.5994 321.313 40.2333C321.253 38.8672 320.695 37.5703 319.742 36.5883Z" fill="#A0616A"/>
<path d="M279.575 159.453L290.211 239.193L303.449 236.471C303.449 236.471 301.502 178.398 308.121 171.397C314.74 164.396 299.608 152.132 299.608 152.132L279.575 159.453Z" fill="#2F2E41"/>
<path d="M283.972 137.49L279.086 144.811C279.086 144.811 241.463 129.192 241.463 154.084C241.463 178.976 239.31 195.869 238.532 197.036C237.753 198.202 247.54 201.23 252.213 200.452C252.213 200.452 257.977 160.323 257.587 157.989C257.587 157.989 294.494 176.064 301.502 174.509C308.51 172.953 310.166 167.446 311.334 164.334C312.502 161.223 310.846 136.513 310.846 136.513L287.485 129.392L283.972 137.49Z" fill="#2F2E41"/>
<path d="M284.631 93.5327L283.239 91.8632C283.239 91.8632 267.64 56.8052 273.768 47.345C279.896 37.8849 306.636 36.4937 307.471 37.0502C308.307 37.6067 305.475 44.8316 307.425 48.1705C307.425 48.1705 286.711 52.6566 285.319 53.213C283.926 53.7695 296.051 74.3342 296.051 74.3342L294.659 86.8549L284.631 93.5327Z" fill="#CCCCCC"/>
<path d="M311.928 76.2819C311.928 76.2819 297.444 77.9513 296.887 77.9513C296.33 77.9513 296.051 74.3342 296.051 74.3342L283.239 91.8633C283.239 91.8633 276.926 142.717 278.598 141.882C280.269 141.048 311.093 145.842 311.371 143.616C311.65 141.39 311.093 130.26 311.928 129.704C312.764 129.147 326.412 94.6457 326.412 94.6457C326.412 94.6457 325.019 87.4115 320.284 84.9073C315.549 82.4031 311.928 76.2819 311.928 76.2819Z" fill="#CCCCCC"/>
<path d="M321.955 89.9155L326.412 94.6456C326.412 94.6456 333.034 148.998 329.413 150.668C325.792 152.337 318.663 152.132 318.663 152.132L311.649 126.365L321.955 89.9155Z" fill="#CCCCCC"/>
<path d="M298.009 72.8397C305.09 72.8397 310.83 67.106 310.83 60.033C310.83 52.9601 305.09 47.2263 298.009 47.2263C290.929 47.2263 285.189 52.9601 285.189 60.033C285.189 67.106 290.929 72.8397 298.009 72.8397Z" fill="#A0616A"/>
<path d="M295.001 62.0314C294.828 59.3741 291.472 59.283 288.806 59.2579C286.141 59.2327 282.954 59.3278 281.445 57.1321C280.449 55.681 280.639 53.6665 281.462 52.1108C282.286 50.555 283.641 49.3585 284.973 48.2074C288.414 45.2355 291.959 42.2873 296.09 40.3851C300.221 38.4829 305.061 37.7143 309.345 39.2412C314.607 41.117 321.721 50.7726 322.335 56.3201C322.95 61.8676 320.73 67.5229 316.989 71.6683C313.248 75.8138 304.685 74.1412 299.296 75.6159C302.572 70.9842 300.413 62.5682 295.165 60.4053L295.001 62.0314Z" fill="#2F2E41"/>
<path d="M180.74 227.688C197.738 227.688 211.517 213.923 211.517 196.944C211.517 179.964 197.738 166.2 180.74 166.2C163.742 166.2 149.963 179.964 149.963 196.944C149.963 213.923 163.742 227.688 180.74 227.688Z" fill="#2D5BFF"/>
<path d="M160.187 164.015C155.921 164.015 151.747 162.781 148.169 160.46C144.592 158.14 141.764 154.834 140.029 150.941L91.1915 41.0778C89.5738 37.4386 88.7182 33.5073 88.6773 29.5256C88.6365 25.5439 89.4112 21.5959 90.954 17.9244C92.4967 14.2528 94.7749 10.9351 97.6484 8.17539C100.522 5.41565 103.93 3.27211 107.663 1.87651C111.397 0.480917 115.376 -0.137244 119.358 0.0600323C123.339 0.257308 127.238 1.26585 130.815 3.02367C134.391 4.78148 137.57 7.25144 140.156 10.2817C142.742 13.312 144.681 16.8385 145.852 20.6446L181.216 135.545C182.229 138.834 182.455 142.314 181.877 145.706C181.298 149.098 179.932 152.308 177.887 155.076C175.842 157.845 173.175 160.096 170.101 161.648C167.027 163.201 163.631 164.011 160.187 164.015H160.187Z" fill="#2D5BFF"/>
</g>
<defs>
<filter id="filter0_d_639_968" x="0" y="0" width="394" height="258" filterUnits="userSpaceOnUse" color-interpolation-filters="sRGB">
<feFlood flood-opacity="0" result="BackgroundImageFix"/>
<feColorMatrix in="SourceAlpha" type="matrix" values="0 0 0 0 0 0 0 0 0 0 0 0 0 0 0 0 0 0 127 0" result="hardAlpha"/>
<feOffset dy="4"/>
<feGaussianBlur stdDeviation="2"/>
<feComposite in2="hardAlpha" operator="out"/>
<feColorMatrix type="matrix" values="0 0 0 0 0 0 0 0 0 0 0 0 0 0 0 0 0 0 0.25 0"/>
<feBlend mode="normal" in2="BackgroundImageFix" result="effect1_dropShadow_639_968"/>
<feBlend mode="normal" in="SourceGraphic" in2="effect1_dropShadow_639_968" result="shape"/>
</filter>
</defs>
</svg>
