<svg width="474" height="326" viewBox="0 0 474 326" fill="none" xmlns="http://www.w3.org/2000/svg">
<g clip-path="url(#clip0_639_989)">
<path d="M447.105 86.27C423.863 86.27 400.336 82.7854 376.965 75.868C354.267 69.1494 331.666 59.196 309.79 46.2842C275.341 25.9514 253.479 4.52014 250.214 1.23301C237.875 20.802 219.134 36.2427 194.504 47.1294C174.654 55.9033 150.955 61.7561 124.064 64.525C78.3024 69.2382 38.6094 63.2922 38.2138 63.2314C38.0897 63.2124 37.9782 63.1449 37.9039 63.0436C37.8295 62.9424 37.7985 62.8157 37.8175 62.6916C37.8365 62.5674 37.904 62.4559 38.0052 62.3815C38.1064 62.3072 38.233 62.2761 38.3571 62.2951C38.7516 62.3559 78.3427 68.2841 123.987 63.5808C166.054 59.2462 222.017 44.7356 249.729 0.222928C249.767 0.161729 249.819 0.110045 249.88 0.0718136C249.941 0.0335822 250.01 0.00981498 250.081 0.00232109C250.153 -0.00517281 250.226 0.00380434 250.293 0.0285709C250.361 0.0533375 250.422 0.0932399 250.472 0.145234C250.695 0.376941 273.155 23.5656 310.296 45.4834C344.558 65.7016 398.68 88.9437 461.945 84.844C462.071 84.8359 462.194 84.878 462.288 84.9609C462.382 85.0438 462.44 85.1607 462.448 85.286C462.456 85.4113 462.414 85.5347 462.331 85.629C462.249 85.7234 462.132 85.7811 462.007 85.7893C457.055 86.11 452.088 86.2703 447.105 86.27Z" fill="#CCCCCC"/>
<path d="M91.08 87.6219C90.8386 87.6086 90.6074 87.5201 90.4187 87.3689C90.23 87.2176 90.0933 87.0112 90.0278 86.7784L83.9433 66.3329C83.8918 66.1601 83.8805 65.9779 83.9102 65.8001C83.9398 65.6223 84.0097 65.4536 84.1144 65.3069C84.2191 65.1602 84.3559 65.0394 84.5144 64.9536C84.6729 64.8678 84.8488 64.8194 85.0288 64.812H85.029L97.4238 64.3018C97.6123 64.2941 97.8 64.3316 97.9711 64.4111C98.1423 64.4907 98.2919 64.6101 98.4075 64.7593C98.5232 64.9085 98.6015 65.0831 98.636 65.2688C98.6704 65.4544 98.66 65.6455 98.6056 65.8263L92.2952 86.782C92.2249 87.0278 92.0756 87.2435 91.8704 87.3958C91.6652 87.5481 91.4156 87.6285 91.1601 87.6245C91.1332 87.6244 91.1064 87.6236 91.08 87.6219Z" fill="#E6E6E6"/>
<path d="M150.743 83.1325C150.503 83.1582 150.261 83.1082 150.05 82.9893C149.839 82.8704 149.671 82.6886 149.569 82.4694L140.273 63.2709C140.195 63.1087 140.154 62.9306 140.155 62.7504C140.155 62.5701 140.197 62.3924 140.277 62.2308C140.357 62.0691 140.472 61.9278 140.615 61.8176C140.757 61.7074 140.923 61.6313 141.1 61.5949H141.1L153.251 59.0948C153.436 59.0568 153.627 59.0636 153.809 59.1145C153.99 59.1655 154.157 59.2592 154.295 59.3878C154.434 59.5164 154.539 59.6762 154.603 59.8539C154.667 60.0315 154.687 60.2219 154.663 60.4091L151.807 82.1078C151.778 82.3617 151.665 82.5986 151.487 82.782C151.309 82.9654 151.076 83.0849 150.823 83.1221C150.796 83.1263 150.77 83.1299 150.743 83.1325Z" fill="#E6E6E6"/>
<path d="M216.488 60.6495C216.265 60.7434 216.018 60.7652 215.783 60.712C215.547 60.6587 215.334 60.5331 215.173 60.3525L200.748 44.6413C200.627 44.5085 200.537 44.3497 200.485 44.1768C200.434 44.004 200.423 43.8218 200.453 43.644C200.483 43.4663 200.553 43.2977 200.658 43.1511C200.763 43.0045 200.9 42.8838 201.058 42.7983L201.058 42.7982L211.976 36.9065C212.143 36.8169 212.328 36.7683 212.516 36.7648C212.705 36.7614 212.892 36.8031 213.061 36.8865C213.23 36.9699 213.377 37.0926 213.49 37.2443C213.602 37.3961 213.676 37.5725 213.706 37.7588L217.212 59.3619C217.257 59.6136 217.217 59.873 217.099 60.0998C216.982 60.3267 216.792 60.5084 216.561 60.6168C216.537 60.6284 216.512 60.6395 216.488 60.6495Z" fill="#E6E6E6"/>
<path d="M426.332 107.015C426.093 106.974 425.873 106.861 425.703 106.689C425.532 106.518 425.419 106.297 425.38 106.059L421.621 85.0603C421.589 84.8828 421.598 84.7005 421.648 84.5271C421.697 84.3538 421.785 84.194 421.906 84.0599C422.026 83.9259 422.176 83.8211 422.343 83.7536C422.51 83.6861 422.69 83.6577 422.87 83.6705H422.87L435.244 84.5511C435.432 84.5646 435.615 84.6228 435.776 84.7211C435.937 84.8193 436.072 84.9547 436.171 85.1159C436.269 85.2771 436.327 85.4594 436.341 85.6477C436.354 85.836 436.322 86.0248 436.248 86.1984L427.633 106.316C427.536 106.552 427.363 106.75 427.142 106.878C426.921 107.007 426.664 107.059 426.411 107.026C426.384 107.023 426.358 107.019 426.332 107.015Z" fill="#E6E6E6"/>
<path d="M360.286 93.2613C360.062 93.1691 359.873 93.0094 359.745 92.8044C359.616 92.5994 359.555 92.3594 359.57 92.1179L360.562 70.8087C360.57 70.6286 360.62 70.4529 360.706 70.2948C360.793 70.1367 360.914 70.0005 361.061 69.8965C361.209 69.7925 361.378 69.7236 361.555 69.6948C361.733 69.6661 361.915 69.6784 362.088 69.7307L362.088 69.7308L373.958 73.3361C374.139 73.391 374.304 73.4883 374.439 73.6199C374.574 73.7514 374.676 73.9135 374.736 74.0925C374.796 74.2714 374.813 74.4622 374.784 74.6488C374.755 74.8354 374.683 75.0125 374.572 75.1652L361.71 92.869C361.562 93.0779 361.35 93.2324 361.106 93.3085C360.862 93.3846 360.6 93.3782 360.36 93.2902C360.335 93.2812 360.31 93.2716 360.286 93.2613Z" fill="#E6E6E6"/>
<path d="M320.544 105.071H313.451C313.131 105.071 312.815 104.999 312.527 104.86C312.239 104.722 311.986 104.52 311.786 104.27C311.587 104.02 311.446 103.729 311.374 103.417C311.303 103.105 311.302 102.781 311.373 102.469L312.687 96.6693C295.83 93.9277 283.149 75.5066 283.149 53.6868C283.149 29.7928 298.333 10.3535 316.997 10.3535C335.661 10.3535 350.845 29.7928 350.845 53.6868C350.845 75.5066 338.165 93.9277 321.308 96.6693L322.622 102.469C322.692 102.781 322.692 103.105 322.62 103.417C322.549 103.729 322.408 104.02 322.208 104.27C322.009 104.52 321.756 104.722 321.468 104.86C321.179 104.999 320.864 105.071 320.544 105.071V105.071Z" fill="#FF6584"/>
<path d="M323.388 98.4408H312.027C311.587 98.4408 311.166 98.2662 310.855 97.9554C310.544 97.6445 310.37 97.2229 310.37 96.7833C310.37 96.3437 310.544 95.9221 310.855 95.6112C311.166 95.3004 311.587 95.1257 312.027 95.1257H323.388C323.827 95.1257 324.249 95.3004 324.56 95.6112C324.87 95.9221 325.045 96.3437 325.045 96.7833C325.045 97.2229 324.87 97.6445 324.56 97.9554C324.249 98.2662 323.827 98.4408 323.388 98.4408V98.4408Z" fill="#3F3D56"/>
<path d="M311.546 96.3746C309.807 95.9402 307.992 95.9101 306.24 96.2866C304.488 96.6631 302.846 97.4362 301.439 98.5465C300.055 99.6839 298.954 101.129 298.226 102.766C297.497 104.403 297.161 106.188 297.242 107.978C297.589 115.716 305.376 119.875 310.804 124.036C317.218 128.954 323.239 134.628 327.586 141.498C331.89 148.301 334.589 156.363 333.964 164.482C333.423 171.505 330.242 178.467 324.786 183.012C324.099 183.58 323.377 184.106 322.625 184.586C321.858 185.079 322.569 186.31 323.341 185.813C329.319 181.969 333.273 175.562 334.771 168.678C336.437 161.019 334.952 153.045 331.678 146.015C328.276 138.711 322.924 132.501 316.911 127.214C313.928 124.592 310.76 122.212 307.552 119.876C304.73 117.823 301.773 115.612 300.019 112.52C299.153 111.004 298.689 109.292 298.67 107.546C298.652 105.8 299.079 104.079 299.912 102.545C300.781 101.001 302.043 99.7154 303.57 98.8174C305.096 97.9194 306.833 97.4412 308.604 97.4313C309.469 97.423 310.331 97.5284 311.168 97.7446C312.054 97.9711 312.432 96.6012 311.546 96.3746H311.546Z" fill="#3F3D56"/>
<path d="M295.458 65.7632C294.649 65.7623 293.873 65.443 293.297 64.8744C292.721 64.3058 292.392 63.5335 292.381 62.7242C289.848 55.3318 289.848 47.3058 292.381 39.9134C292.391 39.1001 292.722 38.3239 293.303 37.7542C293.883 37.1845 294.665 36.8677 295.478 36.8729C296.291 36.8781 297.068 37.2049 297.641 37.7819C298.214 38.359 298.535 39.1394 298.535 39.9527L298.521 40.0343C295.83 47.3696 295.831 54.9639 298.522 62.6063L298.535 62.6849C298.534 63.501 298.21 64.2835 297.633 64.8606C297.056 65.4377 296.274 65.7623 295.458 65.7632V65.7632Z" fill="white"/>
<path d="M54.1297 178.316C53.8384 178.184 53.5808 177.988 53.3763 177.742C53.1718 177.496 53.0256 177.206 52.9487 176.896L51.5055 171.127C35.2254 176.288 15.6011 165.572 5.76058 146.099C-5.01541 124.776 -0.231561 100.574 16.4247 92.1498C33.081 83.7258 55.3988 94.2207 66.1748 115.545C76.0153 135.017 73.0065 157.18 59.1994 167.236L62.9875 171.819C63.1912 172.065 63.3369 172.354 63.4137 172.665C63.4904 172.975 63.4964 173.299 63.431 173.612C63.3656 173.925 63.2306 174.22 63.036 174.474C62.8414 174.727 62.5922 174.934 62.3069 175.078L55.9763 178.28C55.6912 178.425 55.377 178.504 55.0572 178.51C54.7374 178.516 54.4203 178.45 54.1297 178.316V178.316Z" fill="#CCCCCC"/>
<path d="M48.2215 172.915C48.0238 172.523 47.9897 172.068 48.1268 171.65C48.2638 171.233 48.5608 170.887 48.9526 170.688L59.0921 165.56C59.4842 165.362 59.9387 165.328 60.3557 165.466C60.7728 165.603 61.1183 165.9 61.3164 166.292C61.5145 166.684 61.549 167.139 61.4123 167.556C61.2755 167.974 60.9788 168.32 60.5872 168.518L50.4477 173.647C50.0555 173.844 49.6008 173.878 49.1834 173.741C48.7661 173.604 48.4201 173.307 48.2215 172.915Z" fill="#3F3D56"/>
<path d="M60.085 166.457C61.4406 165.285 63.0467 164.439 64.7801 163.984C66.5134 163.529 68.3278 163.478 70.0841 163.834C71.8326 164.224 73.466 165.017 74.8546 166.149C76.2431 167.281 77.3485 168.722 78.0829 170.357C81.2633 177.419 76.1896 184.645 73.2223 190.809C69.7158 198.093 66.9013 205.874 66.1207 213.967C65.3476 221.981 66.5743 230.394 70.7942 237.357C74.444 243.38 80.423 248.158 87.3414 249.751C88.2115 249.949 89.093 250.092 89.9808 250.181C90.887 250.275 90.807 251.694 89.8943 251.599C82.8263 250.867 76.4076 246.933 71.9664 241.466C67.0252 235.383 64.7541 227.597 64.5059 219.844C64.2479 211.79 66.2232 203.833 69.2052 196.401C70.6844 192.715 72.4382 189.16 74.2486 185.628C75.8404 182.522 77.4825 179.214 77.6531 175.663C77.7421 173.92 77.3844 172.182 76.6138 170.616C75.8432 169.049 74.6853 167.706 73.25 166.712C71.778 165.728 70.0719 165.15 68.3046 165.037C66.5373 164.925 64.7717 165.282 63.1869 166.072C62.4114 166.455 61.6896 166.938 61.0398 167.509C60.3513 168.111 59.3962 167.059 60.085 166.457L60.085 166.457Z" fill="#3F3D56"/>
<path d="M56.5023 130.519L56.4788 130.443C55.4337 122.408 52.0091 115.63 46.2999 110.298L46.2502 110.232C45.883 109.506 45.8178 108.665 46.0688 107.891C46.3198 107.118 46.8666 106.475 47.5897 106.103C48.3129 105.732 49.1537 105.661 49.9284 105.908C50.7032 106.155 51.3489 106.698 51.7245 107.419C57.3194 112.873 60.9391 120.036 62.012 127.776C62.37 128.507 62.4246 129.349 62.1638 130.119C61.903 130.89 61.348 131.526 60.6201 131.888C59.8922 132.25 59.0505 132.31 58.2789 132.053C57.5073 131.797 56.8686 131.245 56.5023 130.519V130.519Z" fill="white"/>
<path d="M363.976 218.013L312.216 191.316C311.436 190.912 310.847 190.215 310.58 189.378C310.312 188.541 310.388 187.632 310.79 186.85L313.991 180.638C314.395 179.857 315.091 179.268 315.928 179C316.765 178.733 317.674 178.808 318.455 179.21L370.215 205.907C370.996 206.311 371.584 207.007 371.852 207.845C372.119 208.682 372.044 209.591 371.642 210.373L368.44 216.585C368.242 216.973 367.968 217.317 367.636 217.598C367.303 217.879 366.918 218.091 366.503 218.222C366.175 218.328 365.833 218.382 365.488 218.382C364.962 218.381 364.444 218.255 363.976 218.013V218.013Z" fill="#2D5BFF"/>
<path d="M348.196 193.039C348.605 192.879 349.041 192.803 349.48 192.815C349.918 192.826 350.35 192.925 350.75 193.105L367.712 202.488C369.568 203.514 370.96 205.214 371.599 207.237C372.238 209.26 372.076 211.451 371.146 213.358L370.933 213.254L371.146 213.358C370.257 215.18 368.732 216.613 366.858 217.384C364.984 218.156 362.892 218.214 360.979 217.545L342.583 211.113C342.185 210.937 341.825 210.684 341.524 210.369C341.224 210.054 340.988 209.683 340.831 209.277C340.674 208.87 340.598 208.437 340.609 208.002C340.619 207.566 340.715 207.137 340.892 206.739L346.361 194.79C346.456 194.573 346.574 194.368 346.713 194.177C347.087 193.662 347.602 193.267 348.196 193.039V193.039Z" fill="#2F2E41"/>
<path d="M387.224 190.172C401.217 190.172 412.56 178.824 412.56 164.826C412.56 150.828 401.217 139.48 387.224 139.48C373.231 139.48 361.888 150.828 361.888 164.826C361.888 178.824 373.231 190.172 387.224 190.172Z" fill="#2D5BFF"/>
<path d="M384.115 322.458V264.2C384.116 263.321 384.466 262.479 385.087 261.857C385.708 261.236 386.55 260.886 387.429 260.885H394.416C395.295 260.886 396.137 261.236 396.758 261.857C397.379 262.479 397.729 263.321 397.73 264.2V322.458C397.729 323.337 397.379 324.18 396.758 324.801C396.137 325.422 395.295 325.772 394.416 325.773H387.429C386.55 325.772 385.708 325.422 385.087 324.801C384.466 324.18 384.116 323.337 384.115 322.458V322.458Z" fill="#2D5BFF"/>
<path d="M368.966 322.458V264.2C368.967 263.321 369.317 262.479 369.938 261.857C370.559 261.236 371.402 260.886 372.28 260.885H379.267C380.146 260.886 380.988 261.236 381.609 261.857C382.23 262.479 382.58 263.321 382.581 264.2V322.458C382.58 323.337 382.23 324.18 381.609 324.801C380.988 325.422 380.146 325.772 379.267 325.773H372.28C371.402 325.772 370.559 325.422 369.938 324.801C369.317 324.18 368.967 323.337 368.966 322.458Z" fill="#2D5BFF"/>
<path d="M387.756 174.22L387.783 173.273C386.021 173.224 384.468 173.114 383.302 172.261C382.971 172.005 382.699 171.681 382.504 171.311C382.31 170.941 382.197 170.534 382.174 170.116C382.154 169.861 382.192 169.605 382.287 169.367C382.382 169.129 382.53 168.917 382.72 168.745C383.495 168.091 384.741 168.303 385.649 168.72L386.433 169.079L384.93 158.096L383.992 158.225L385.27 167.567C384.036 167.204 382.892 167.36 382.109 168.022C381.808 168.285 381.572 168.614 381.419 168.983C381.266 169.352 381.201 169.751 381.228 170.15C381.256 170.71 381.406 171.259 381.667 171.755C381.929 172.252 382.296 172.686 382.743 173.026C384.242 174.122 386.191 174.176 387.756 174.22Z" fill="#2F2E41"/>
<path d="M379.354 159.03H374.254V159.977H379.354V159.03Z" fill="#2F2E41"/>
<path d="M395.449 159.03H390.35V159.977H395.449V159.03Z" fill="#2F2E41"/>
<path d="M411.469 273.84L402.706 216.246C402.574 215.377 402.793 214.491 403.314 213.783C403.835 213.075 404.615 212.603 405.483 212.47L412.391 211.418C413.259 211.287 414.145 211.505 414.852 212.026C415.56 212.547 416.032 213.328 416.165 214.196L424.928 271.791C425.059 272.66 424.841 273.546 424.32 274.253C423.799 274.961 423.019 275.434 422.151 275.567L415.243 276.619C414.813 276.685 414.374 276.665 413.951 276.561C413.529 276.457 413.131 276.271 412.78 276.013C412.429 275.755 412.133 275.43 411.908 275.057C411.683 274.684 411.534 274.271 411.469 273.84V273.84Z" fill="#2D5BFF"/>
<path d="M404.697 236.873C404.328 236.636 404.01 236.327 403.761 235.966C403.513 235.604 403.339 235.196 403.25 234.767L400.874 215.523C400.614 213.417 401.171 211.292 402.432 209.586C403.693 207.88 405.561 206.724 407.649 206.357L407.69 206.59L407.649 206.357C409.645 206.005 411.7 206.399 413.426 207.462C415.151 208.526 416.426 210.185 417.01 212.127L422.615 230.798C422.706 231.224 422.713 231.663 422.635 232.092C422.557 232.52 422.395 232.929 422.158 233.295C421.922 233.661 421.616 233.977 421.258 234.224C420.899 234.472 420.496 234.646 420.07 234.737L407.191 237.33C406.96 237.38 406.725 237.405 406.489 237.405C405.852 237.405 405.23 237.22 404.697 236.873V236.873Z" fill="#2F2E41"/>
<path d="M405.376 278.503H337.67C336.983 278.503 336.308 278.327 335.708 277.992C335.109 277.657 334.605 277.174 334.245 276.59C333.884 276.005 333.679 275.337 333.65 274.651C333.62 273.965 333.766 273.282 334.075 272.669L366.81 207.545C369.084 203.02 372.818 199.395 377.408 197.256C381.997 195.117 387.173 194.59 392.099 195.759C397.025 196.928 401.413 199.726 404.553 203.699C407.692 207.673 409.4 212.589 409.4 217.654V274.477C409.399 275.544 408.975 276.568 408.22 277.322C407.466 278.077 406.443 278.501 405.376 278.503V278.503Z" fill="#2F2E41"/>
<path d="M388.122 143.915C382.935 145.074 378.561 148.455 373.346 149.507C370.969 149.986 368.352 149.966 366.17 148.796C364.554 147.918 363.317 146.475 362.698 144.743C362.085 142.971 361.927 141.073 362.238 139.224C362.55 137.376 363.321 135.635 364.481 134.162C367.408 130.577 372.076 128.925 376.554 128.46C385.515 127.528 394.72 130.482 402.014 135.628C409.546 140.942 415.323 148.921 417.261 158.001C418.297 162.855 418.195 168.019 416.426 172.693C414.725 177.166 411.376 180.817 407.068 182.897C406.039 183.393 404.967 183.793 403.865 184.09C403.689 184.145 403.541 184.266 403.453 184.428C403.365 184.59 403.343 184.779 403.392 184.957C403.441 185.135 403.557 185.287 403.716 185.38C403.874 185.474 404.063 185.503 404.242 185.46C409.087 184.136 413.266 181.057 415.967 176.822C418.742 172.382 419.672 166.947 419.245 161.781C418.418 151.789 412.926 142.605 405.247 136.317C397.871 130.277 388.328 126.602 378.734 126.894C373.922 127.04 368.927 128.262 365.185 131.434C363.573 132.799 362.325 134.542 361.553 136.508C360.781 138.475 360.51 140.602 360.763 142.7C360.978 144.662 361.757 146.519 363.005 148.048C364.531 149.773 366.646 150.866 368.936 151.112C374.609 151.851 379.528 148.634 384.542 146.566C385.822 146.027 387.146 145.598 388.499 145.285C389.391 145.086 389.013 143.716 388.122 143.915V143.915Z" fill="#2F2E41"/>
<path d="M402.372 133.874C400.335 126.246 405.65 118.307 412.873 115.925C417.018 114.633 421.464 114.683 425.579 116.066C429.591 117.424 433.193 119.777 436.05 122.905C442.381 129.644 445.186 138.738 446.498 147.705C447.854 156.963 447.089 167.103 451.824 175.517C453.788 179.005 456.702 182.059 460.467 183.561C463.98 184.962 468.188 184.969 471.554 183.147C472.364 182.704 473.112 182.157 473.781 181.52C474.447 180.891 473.442 179.888 472.777 180.515C469.959 183.175 465.759 183.677 462.137 182.633C458.186 181.494 455.145 178.457 453.141 174.959C450.824 170.915 449.859 166.291 449.333 161.704C448.759 156.697 448.537 151.662 447.77 146.675C446.386 137.68 443.397 128.651 437.054 121.901C434.153 118.748 430.537 116.341 426.509 114.882C422.363 113.397 417.871 113.17 413.596 114.229C409.711 115.236 406.286 117.54 403.889 120.76C401.559 123.816 400.374 127.593 400.54 131.433C400.601 132.386 400.756 133.33 401.002 134.252C401.057 134.428 401.178 134.575 401.34 134.664C401.502 134.752 401.692 134.774 401.869 134.725C402.047 134.676 402.198 134.56 402.292 134.401C402.386 134.242 402.414 134.054 402.372 133.874L402.372 133.874Z" fill="#2F2E41"/>
<path d="M192.929 221.292L134.056 217.435C133.128 217.375 132.221 217.132 131.386 216.721C130.551 216.309 129.806 215.738 129.192 215.038C128.579 214.339 128.109 213.525 127.809 212.644C127.51 211.762 127.387 210.831 127.448 209.902C127.509 208.973 127.752 208.066 128.164 207.231C128.575 206.396 129.147 205.651 129.847 205.037C130.546 204.424 131.36 203.954 132.241 203.655C133.122 203.357 134.054 203.234 134.982 203.296L193.855 207.153C194.733 207.21 195.552 207.614 196.132 208.276C196.712 208.937 197.005 209.802 196.948 210.68L196.456 218.198C196.401 219.038 196.029 219.825 195.415 220.401C194.802 220.977 193.992 221.298 193.151 221.299C193.078 221.299 193.004 221.297 192.929 221.292Z" fill="#2D5BFF"/>
<path d="M181.417 222.266L133.004 220.456C132.569 220.439 132.141 220.338 131.745 220.156C131.349 219.974 130.993 219.716 130.697 219.397C130.401 219.078 130.17 218.703 130.019 218.295C129.867 217.886 129.798 217.452 129.814 217.016L130.233 205.788C130.266 204.909 130.647 204.078 131.292 203.48C131.936 202.881 132.792 202.563 133.671 202.596L182.084 204.406C182.52 204.423 182.947 204.525 183.343 204.706C183.739 204.888 184.095 205.146 184.392 205.465C184.688 205.784 184.918 206.159 185.07 206.567C185.221 206.976 185.291 207.41 185.275 207.846L184.855 219.074C184.822 219.931 184.459 220.743 183.842 221.338C183.224 221.933 182.4 222.267 181.543 222.268C181.501 222.268 181.459 222.267 181.417 222.266Z" fill="#2F2E41"/>
<path d="M121.494 322.455V259.665C121.495 258.786 121.844 257.943 122.466 257.321C123.088 256.699 123.931 256.349 124.81 256.348H132.341C133.22 256.349 134.063 256.699 134.685 257.321C135.307 257.943 135.656 258.786 135.657 259.665V322.455C135.656 323.335 135.307 324.178 134.685 324.8C134.063 325.422 133.22 325.772 132.341 325.773H124.81C123.931 325.772 123.088 325.422 122.466 324.8C121.844 324.178 121.495 323.335 121.494 322.455Z" fill="#2F2E41"/>
<path d="M153.681 291.466L121.147 237.77C120.692 237.017 120.554 236.114 120.764 235.26C120.973 234.406 121.513 233.669 122.264 233.213L128.704 229.308C129.456 228.852 130.359 228.714 131.212 228.924C132.066 229.133 132.802 229.673 133.259 230.425L165.793 284.121C166.248 284.874 166.386 285.776 166.176 286.631C165.967 287.485 165.427 288.221 164.676 288.678L158.236 292.583C157.484 293.038 156.581 293.176 155.727 292.967C154.874 292.757 154.137 292.217 153.681 291.466V291.466Z" fill="#2F2E41"/>
<path d="M136.248 190.82C150.619 190.82 162.269 179.165 162.269 164.788C162.269 150.411 150.619 138.756 136.248 138.756C121.877 138.756 110.227 150.411 110.227 164.788C110.227 179.165 121.877 190.82 136.248 190.82Z" fill="#2D5BFF"/>
<path d="M150.333 173.676C151.17 173.401 151.938 172.95 152.587 172.353C153.016 171.926 153.347 171.411 153.557 170.844C153.766 170.276 153.849 169.669 153.8 169.066C153.772 168.636 153.646 168.219 153.431 167.846C153.216 167.473 152.917 167.155 152.558 166.917C151.628 166.319 150.383 166.318 149.116 166.876L149.164 156.714L148.144 156.709L148.087 168.656L148.874 168.161C149.785 167.588 151.087 167.185 152.007 167.776C152.235 167.932 152.423 168.138 152.558 168.379C152.692 168.62 152.77 168.888 152.784 169.164C152.818 169.613 152.755 170.064 152.6 170.487C152.444 170.91 152.199 171.295 151.882 171.614C150.755 172.691 149.111 173.028 147.236 173.329L147.398 174.336C148.394 174.204 149.376 173.983 150.333 173.676V173.676Z" fill="#2F2E41"/>
<path d="M159.683 156.2L154.234 156.92L154.368 157.932L159.817 157.212L159.683 156.2Z" fill="#2F2E41"/>
<path d="M142.485 158.472L137.036 159.192L137.17 160.204L142.618 159.484L142.485 158.472Z" fill="#2F2E41"/>
<path d="M110.183 272.173V220.865C110.19 214.643 112.664 208.677 117.062 204.278C121.46 199.878 127.423 197.403 133.643 197.396H149.215C150.36 197.395 151.458 197.847 152.27 198.654C153.083 199.461 153.543 200.556 153.55 201.701L162.736 272.173C162.735 273.324 162.277 274.427 161.464 275.24C160.651 276.053 159.549 276.511 158.399 276.512H114.52C113.37 276.511 112.268 276.053 111.455 275.24C110.642 274.427 110.184 273.324 110.183 272.173V272.173Z" fill="#2F2E41"/>
<path d="M77.6034 247.64L122.248 209.053C122.952 208.445 123.769 207.98 124.652 207.687C125.535 207.394 126.467 207.278 127.395 207.346C128.323 207.413 129.228 207.663 130.06 208.08C130.891 208.498 131.632 209.076 132.24 209.78C132.848 210.484 133.312 211.301 133.604 212.185C133.897 213.069 134.012 214.001 133.944 214.929C133.876 215.858 133.626 216.763 133.208 217.595C132.79 218.426 132.212 219.167 131.508 219.775L86.8628 258.362C86.5333 258.647 86.1509 258.864 85.7375 259.001C85.3241 259.138 84.8877 259.192 84.4533 259.161C84.019 259.129 83.5951 259.012 83.2059 258.816C82.8168 258.621 82.4699 258.35 82.1852 258.021L77.2619 252.32C76.6869 251.654 76.3998 250.787 76.4639 249.909C76.5279 249.032 76.9378 248.215 77.6034 247.64V247.64Z" fill="#2D5BFF"/>
<path d="M87.4568 234.906L124.117 203.221C124.446 202.936 124.829 202.719 125.242 202.582C125.656 202.445 126.092 202.391 126.526 202.422C126.961 202.454 127.385 202.571 127.774 202.767C128.163 202.962 128.51 203.233 128.795 203.562L137.204 213.3C137.488 213.629 137.705 214.012 137.842 214.425C137.979 214.839 138.033 215.276 138.002 215.71C137.97 216.145 137.853 216.569 137.658 216.958C137.462 217.347 137.192 217.694 136.862 217.979L100.202 249.665C99.5363 250.239 98.6699 250.525 97.7929 250.461C96.916 250.397 96.1003 249.988 95.5247 249.323L87.1154 239.586C86.5404 238.92 86.2534 238.053 86.3174 237.175C86.3814 236.298 86.7913 235.482 87.4568 234.906Z" fill="#2F2E41"/>
<path d="M135.761 149.348C139.24 146.469 143.89 149.192 147.823 148.806C151.587 148.436 154.616 145.122 155.442 141.557C156.405 137.397 154.317 133.172 151.173 130.507C147.729 127.588 143.105 126.681 138.698 127.125C133.648 127.634 128.995 129.897 124.806 132.66C120.764 135.243 117.035 138.284 113.692 141.725C110.696 144.91 108.137 148.727 107.261 153.074C106.464 157.024 106.931 161.427 109.21 164.83C110.42 166.575 112.058 167.978 113.968 168.905C115.957 169.93 118.087 170.676 120.011 171.829C122.922 173.571 125.715 177.123 124.724 180.745C124.511 181.537 124.108 182.264 123.548 182.862C122.876 183.581 121.706 182.592 122.38 181.872C123.564 180.606 123.551 178.888 122.963 177.339C122.261 175.593 120.987 174.137 119.35 173.209C117.335 172.006 115.1 171.244 113.032 170.143C111.052 169.135 109.345 167.664 108.056 165.855C105.623 162.333 104.961 157.798 105.607 153.627C106.307 149.113 108.709 145.044 111.688 141.653C114.931 137.963 118.886 134.862 122.92 132.085C127.248 129.106 132.014 126.608 137.252 125.772C141.792 125.046 146.687 125.639 150.597 128.181C154.247 130.554 157.004 134.569 157.202 139C157.265 141.016 156.79 143.012 155.825 144.783C154.861 146.555 153.442 148.037 151.715 149.077C149.944 150.092 147.899 150.525 145.869 150.315C143.698 150.135 141.534 149.427 139.343 149.571C138.352 149.612 137.401 149.976 136.635 150.606C135.875 151.235 135.007 149.972 135.761 149.348L135.761 149.348Z" fill="#2F2E41"/>
<path d="M165.871 287.354L146.35 317.632C145.872 318.371 145.122 318.89 144.262 319.076C143.403 319.261 142.505 319.098 141.765 318.622L135.437 314.539C134.698 314.062 134.178 313.31 133.993 312.45C133.807 311.59 133.971 310.692 134.447 309.952L153.969 279.674C154.446 278.935 155.197 278.416 156.057 278.231C156.916 278.045 157.814 278.208 158.554 278.684L164.882 282.767C165.249 283.003 165.565 283.308 165.813 283.667C166.061 284.025 166.235 284.429 166.326 284.856C166.339 284.913 166.35 284.971 166.359 285.028C166.491 285.837 166.318 286.666 165.871 287.354V287.354Z" fill="#2F2E41"/>
<path d="M461.503 326H38.759C38.6335 326 38.5131 325.95 38.4243 325.861C38.3355 325.772 38.2856 325.652 38.2856 325.526C38.2856 325.401 38.3355 325.28 38.4243 325.191C38.5131 325.103 38.6335 325.053 38.759 325.053H461.503C461.628 325.053 461.749 325.103 461.837 325.191C461.926 325.28 461.976 325.401 461.976 325.526C461.976 325.652 461.926 325.772 461.837 325.861C461.749 325.95 461.628 326 461.503 326Z" fill="#3F3D56"/>
<path d="M191.311 139.88H188.47V148.878H191.311V139.88Z" fill="#F2F2F2"/>
<path d="M237.23 114.306H234.39V123.304H237.23V114.306Z" fill="#F2F2F2"/>
<path d="M225.599 141.868L223.376 143.638L228.978 150.678L231.2 148.908L225.599 141.868Z" fill="#F2F2F2"/>
<path d="M212.212 169.135L207.714 176.927L210.174 178.348L214.671 170.555L212.212 169.135Z" fill="#F2F2F2"/>
<path d="M199.43 81.5208L194.933 89.3135L197.392 90.7342L201.89 82.9416L199.43 81.5208Z" fill="#F2F2F2"/>
<path d="M272.735 235.071H269.895V244.069H272.735V235.071Z" fill="#F2F2F2"/>
<path d="M318.654 209.497H315.814V218.495H318.654V209.497Z" fill="#F2F2F2"/>
<path d="M307.023 237.06L304.801 238.829L310.402 245.87L312.625 244.1L307.023 237.06Z" fill="#F2F2F2"/>
<path d="M293.636 264.326L289.139 272.119L291.599 273.539L296.096 265.747L293.636 264.326Z" fill="#F2F2F2"/>
<path d="M280.854 176.712L276.357 184.505L278.817 185.926L283.314 178.133L280.854 176.712Z" fill="#F2F2F2"/>
<path d="M138.555 138.768L133.941 136.025L130.277 133.844L124.965 130.684L121.297 128.506L116.311 125.537C116.23 125.489 116.138 125.463 116.044 125.462C115.95 125.461 115.857 125.485 115.775 125.531C115.693 125.577 115.625 125.643 115.577 125.724C115.529 125.805 115.502 125.897 115.501 125.991L115.45 130.212L115.406 133.474L115.345 138.203L115.308 141.467L115.247 146.196L115.208 149.456L115.177 151.878C115.173 151.973 115.195 152.066 115.242 152.148C115.288 152.229 115.354 152.297 115.433 152.347C115.514 152.395 115.606 152.421 115.7 152.422C115.794 152.423 115.887 152.399 115.969 152.352L138.546 139.691C138.617 139.653 138.678 139.599 138.724 139.533C138.77 139.467 138.8 139.39 138.81 139.31C138.816 139.284 138.82 139.258 138.821 139.231C138.82 139.138 138.796 139.046 138.751 138.964C138.705 138.882 138.637 138.814 138.555 138.768V138.768Z" fill="#CCCCCC"/>
<path d="M124.964 130.684L115.406 133.475L115.449 130.212L121.297 128.506L124.964 130.684Z" fill="#3F3D56"/>
<path d="M133.94 136.025L115.308 141.467L115.345 138.203L130.277 133.844L133.94 136.025Z" fill="#3F3D56"/>
<path d="M138.81 139.311C138.799 139.39 138.77 139.467 138.724 139.533C138.678 139.599 138.617 139.653 138.546 139.691L127.569 145.847L115.208 149.456L115.247 146.196L138.81 139.311Z" fill="#3F3D56"/>
<path d="M114.731 127.939C117.089 127.939 119.001 126.027 119.001 123.668C119.001 121.309 117.089 119.397 114.731 119.397C112.373 119.397 110.462 121.309 110.462 123.668C110.462 126.027 112.373 127.939 114.731 127.939Z" fill="#CCCCCC"/>
</g>
<defs>
<clipPath id="clip0_639_989">
<rect width="474" height="326" fill="white"/>
</clipPath>
</defs>
</svg>
